<svg xmlns="http://www.w3.org/2000/svg" viewBox="0 0 512 512"><title>rsq-icon-original-globe</title><rect x="1.5" y="1.5" width="509" height="509" rx="113" ry="113" style="fill:#edeced"/><path d="M256,417.5A161.5,161.5,0,0,1,94.5,256.83C94,167.78,166.12,95,255.17,94.5h1.61A161.5,161.5,0,0,1,417.5,255.17C418,344.22,345.88,417,256.83,417.5Zm10-95.55v71.39a182.93,182.93,0,0,0,45.44-63.49A192.17,192.17,0,0,0,266,321.95Zm-65.54,7.93A185.61,185.61,0,0,0,246,393.33V321.95A192.08,192.08,0,0,0,200.46,329.88Zm-48.27,22.28q2.08,2.24,4.27,4.41A140.75,140.75,0,0,0,216.59,392q-1.5-1.69-3-3.42a204.86,204.86,0,0,1-32-51.89A191.56,191.56,0,0,0,152.19,352.16Zm178.1-15.54a202.61,202.61,0,0,1-34.78,55.27,141.72,141.72,0,0,0,64.24-39.77A191.64,191.64,0,0,0,330.29,336.62ZM114.85,266a140.18,140.18,0,0,0,24.73,70.5,211.64,211.64,0,0,1,35.09-18.62A202.62,202.62,0,0,1,165.61,266Zm222.32,51.82a211.66,211.66,0,0,1,35.17,18.63A140.69,140.69,0,0,0,397.15,266H346.26A205.62,205.62,0,0,1,337.17,317.82ZM185.63,266a182.71,182.71,0,0,0,7.88,45.08A212.12,212.12,0,0,1,246,301.92V266ZM266,301.92A212.18,212.18,0,0,1,318.34,311a185.75,185.75,0,0,0,7.91-45H266ZM346.2,246h51a140.27,140.27,0,0,0-24.74-70.5,211.59,211.59,0,0,1-35.63,18.84A204.29,204.29,0,0,1,346.2,246ZM266,246h60.18a184.16,184.16,0,0,0-8.23-44.92,212.17,212.17,0,0,1-51.94,9Zm-80.25,0H246V210.08a212.22,212.22,0,0,1-52-9,185.78,185.78,0,0,0-7.91,40.24Q185.89,243.66,185.75,246Zm-70.9,0h50.87q.17-3.18.44-6.38a205.83,205.83,0,0,1,9-45.31,211.5,211.5,0,0,1-35.49-18.76A140.65,140.65,0,0,0,114.85,246ZM266,120.22v69.83a192.22,192.22,0,0,0,44.87-7.73A184.51,184.51,0,0,0,266,120.22ZM201.06,182.3A192.15,192.15,0,0,0,246,190.06V120.22A183.22,183.22,0,0,0,201.06,182.3Zm92.5-62.79q2.46,2.7,4.81,5.49a203.58,203.58,0,0,1,31.4,50.6,191.63,191.63,0,0,0,30.05-15.76q-1.84-2-3.76-3.9A140.75,140.75,0,0,0,293.56,119.52ZM152.25,159.88a191.74,191.74,0,0,0,29.92,15.69,202.28,202.28,0,0,1,36.17-56A141.67,141.67,0,0,0,152.25,159.88Z" style="fill:#427cbe"/></svg>