<svg id="Layer_1" data-name="Layer 1" xmlns="http://www.w3.org/2000/svg" viewBox="0 0 292.11 73.87"><title>Intro</title><path d="M23.69,26H20.61V19.6h-6V26H11.54V11.07h3.07v6.05h6V11.07h3.08Z" style="fill:#fff"/><path d="M31.29,26.21a5.46,5.46,0,0,1-4-1.5,5.33,5.33,0,0,1-1.53-4v-.28a6.7,6.7,0,0,1,.65-3,4.69,4.69,0,0,1,1.83-2A5.1,5.1,0,0,1,31,14.7a4.58,4.58,0,0,1,3.58,1.44,5.79,5.79,0,0,1,1.31,4.07v1.21H28.79a2.71,2.71,0,0,0,.86,1.74,2.6,2.6,0,0,0,1.83.66,3.2,3.2,0,0,0,2.68-1.24l1.45,1.63a4.37,4.37,0,0,1-1.8,1.47A6,6,0,0,1,31.29,26.21ZM31,17.09a1.84,1.84,0,0,0-1.43.6,3.05,3.05,0,0,0-.7,1.71h4.12v-.24a2.24,2.24,0,0,0-.53-1.53A1.93,1.93,0,0,0,31,17.09Z" style="fill:#fff"/><path d="M40.66,26h-3V10.25h3Z" style="fill:#fff"/><path d="M46.23,26h-3V10.25h3Z" style="fill:#fff"/><path d="M48.21,20.35a6.62,6.62,0,0,1,.63-2.94,4.73,4.73,0,0,1,1.83-2,5.37,5.37,0,0,1,2.78-.71,5,5,0,0,1,3.66,1.38,5.49,5.49,0,0,1,1.59,3.73l0,.76a5.82,5.82,0,0,1-1.43,4.1,5.52,5.52,0,0,1-7.65,0,5.88,5.88,0,0,1-1.43-4.18Zm3,.21A4.2,4.2,0,0,0,51.76,23a2.14,2.14,0,0,0,3.39,0,4.55,4.55,0,0,0,.6-2.64,4.09,4.09,0,0,0-.6-2.4,2,2,0,0,0-1.7-.86,1.94,1.94,0,0,0-1.69.85A4.66,4.66,0,0,0,51.17,20.56Z" style="fill:#fff"/><path d="M61.31,29.75l-1.55-.81.37-.67a5.27,5.27,0,0,0,.71-2.49v-2.3h2.5v2.05a5.45,5.45,0,0,1-.57,2.3A6,6,0,0,1,61.31,29.75Z" style="fill:#fff"/><path d="M74.36,26H71.29V11.07h3.07Z" style="fill:#fff"/><path d="M77.87,15.66l-1.39-.81A5.57,5.57,0,0,0,77.39,12V10.25h2.36v1.59a4.58,4.58,0,0,1-.52,2A5.4,5.4,0,0,1,77.87,15.66Z" style="fill:#fff"/><path d="M84.41,14.91l.09,1.24a3.92,3.92,0,0,1,3.19-1.45,3,3,0,0,1,3,1.7A3.81,3.81,0,0,1,94,14.7a3.33,3.33,0,0,1,2.69,1.05,4.91,4.91,0,0,1,.88,3.17V26h-3V18.93a2.15,2.15,0,0,0-.36-1.38,1.67,1.67,0,0,0-1.31-.44,1.85,1.85,0,0,0-1.84,1.27V26h-3V18.94a2.07,2.07,0,0,0-.38-1.4,1.67,1.67,0,0,0-1.29-.43,1.91,1.91,0,0,0-1.82,1.05V26h-3V14.91Z" style="fill:#fff"/><path d="M109.26,11.07l3.83,10.83,3.82-10.83h4V26h-3.09V21.92l.31-7-4,11.12H112l-4-11.11.3,7V26h-3.07V11.07Z" style="fill:#f1a79a"/><path d="M123.42,12a1.48,1.48,0,0,1,.44-1.1,1.68,1.68,0,0,1,1.22-.43,1.66,1.66,0,0,1,1.21.43,1.45,1.45,0,0,1,.45,1.1,1.41,1.41,0,0,1-.46,1.1,1.66,1.66,0,0,1-1.2.44,1.7,1.7,0,0,1-1.21-.44A1.44,1.44,0,0,1,123.42,12Zm3.15,14h-3V14.91h3Z" style="fill:#f1a79a"/><path d="M133,21.55,132,22.62V26h-3V10.25h3V19l.57-.74,2.84-3.33h3.56l-4,4.62L139.29,26h-3.4Z" style="fill:#f1a79a"/><path d="M145.13,26.21a5.45,5.45,0,0,1-4-1.5,5.33,5.33,0,0,1-1.53-4v-.28a6.57,6.57,0,0,1,.65-3,4.69,4.69,0,0,1,1.83-2,5.1,5.1,0,0,1,2.7-.72,4.58,4.58,0,0,1,3.58,1.44,5.84,5.84,0,0,1,1.31,4.07v1.21h-7.07a2.77,2.77,0,0,0,.87,1.74,2.6,2.6,0,0,0,1.83.66A3.21,3.21,0,0,0,148,22.58l1.45,1.63a4.37,4.37,0,0,1-1.8,1.47A6,6,0,0,1,145.13,26.21Zm-.34-9.12a1.84,1.84,0,0,0-1.43.6,3.05,3.05,0,0,0-.7,1.71h4.12v-.24a2.2,2.2,0,0,0-.54-1.53A1.89,1.89,0,0,0,144.79,17.09Z" style="fill:#f1a79a"/><path d="M167.42,13.57h-4.58V26h-3.07V13.57h-4.51v-2.5h12.16Z" style="fill:#f1a79a"/><path d="M173.68,26a3.33,3.33,0,0,1-.29-1,3.59,3.59,0,0,1-2.8,1.2,4,4,0,0,1-2.71-.95,3,3,0,0,1-1.07-2.37,3.14,3.14,0,0,1,1.31-2.71,6.39,6.39,0,0,1,3.78-.95h1.36v-.64a1.85,1.85,0,0,0-.39-1.23,1.56,1.56,0,0,0-1.25-.46,1.74,1.74,0,0,0-1.17.36,1.19,1.19,0,0,0-.43,1h-3a3,3,0,0,1,.59-1.78,3.92,3.92,0,0,1,1.69-1.29,6.1,6.1,0,0,1,2.44-.47,4.87,4.87,0,0,1,3.25,1,3.64,3.64,0,0,1,1.21,2.9v4.81a5.19,5.19,0,0,0,.44,2.39V26Zm-2.45-2.06a2.6,2.6,0,0,0,1.21-.29,1.94,1.94,0,0,0,.82-.78V21h-1.1c-1.49,0-2.28.51-2.37,1.54v.17a1.18,1.18,0,0,0,.39.91A1.5,1.5,0,0,0,171.23,23.94Z" style="fill:#f1a79a"/><path d="M181.64,26h-3V10.25h3Z" style="fill:#f1a79a"/><path d="M187.21,26h-3V10.25h3Z" style="fill:#f1a79a"/><path d="M194.75,26.21a5.44,5.44,0,0,1-4-1.5,5.33,5.33,0,0,1-1.53-4v-.28a6.7,6.7,0,0,1,.64-3,4.78,4.78,0,0,1,1.84-2,5.07,5.07,0,0,1,2.7-.72A4.6,4.6,0,0,1,198,16.14a5.84,5.84,0,0,1,1.31,4.07v1.21h-7.07a2.77,2.77,0,0,0,.87,1.74,2.6,2.6,0,0,0,1.83.66,3.21,3.21,0,0,0,2.68-1.24l1.45,1.63a4.37,4.37,0,0,1-1.8,1.47A6,6,0,0,1,194.75,26.21Zm-.33-9.12a1.84,1.84,0,0,0-1.43.6,3.13,3.13,0,0,0-.71,1.71h4.13v-.24a2.25,2.25,0,0,0-.54-1.53A1.89,1.89,0,0,0,194.42,17.09Z" style="fill:#f1a79a"/><path d="M207.24,17.69a7.3,7.3,0,0,0-1.07-.08A2.17,2.17,0,0,0,204,18.74V26h-3V14.91h2.8l.08,1.32a2.75,2.75,0,0,1,2.47-1.53,3.12,3.12,0,0,1,.93.14Z" style="fill:#f1a79a"/><path d="M208.64,12a1.48,1.48,0,0,1,.44-1.1,1.68,1.68,0,0,1,1.22-.43,1.66,1.66,0,0,1,1.21.43A1.45,1.45,0,0,1,212,12a1.41,1.41,0,0,1-.46,1.1,1.86,1.86,0,0,1-2.4,0A1.41,1.41,0,0,1,208.64,12Zm3.15,14h-3V14.91h3Z" style="fill:#f1a79a"/><path d="M218.84,23.82a1.93,1.93,0,0,0,1.33-.45,1.58,1.58,0,0,0,.54-1.2h2.78a3.83,3.83,0,0,1-.62,2.06,3.93,3.93,0,0,1-1.66,1.46,5.1,5.1,0,0,1-2.32.52,4.85,4.85,0,0,1-3.75-1.51,6,6,0,0,1-1.37-4.18v-.2a5.91,5.91,0,0,1,1.36-4.09,4.76,4.76,0,0,1,3.74-1.53,4.67,4.67,0,0,1,3.34,1.19A4.21,4.21,0,0,1,223.49,19h-2.78a2,2,0,0,0-.54-1.41,2,2,0,0,0-2.91.22,4.38,4.38,0,0,0-.53,2.45v.3a4.43,4.43,0,0,0,.52,2.47A1.81,1.81,0,0,0,218.84,23.82Z" style="fill:#f1a79a"/><path d="M224.72,20.35a6.62,6.62,0,0,1,.63-2.94,4.73,4.73,0,0,1,1.83-2A5.37,5.37,0,0,1,230,14.7a5,5,0,0,1,3.66,1.38,5.49,5.49,0,0,1,1.59,3.73l0,.76a5.82,5.82,0,0,1-1.43,4.1,5.52,5.52,0,0,1-7.65,0,5.88,5.88,0,0,1-1.43-4.18Zm3,.21a4.2,4.2,0,0,0,.59,2.42,2.14,2.14,0,0,0,3.39,0,4.55,4.55,0,0,0,.6-2.64,4.09,4.09,0,0,0-.6-2.4,2,2,0,0,0-1.7-.86,1.94,1.94,0,0,0-1.69.85A4.66,4.66,0,0,0,227.68,20.56Z" style="fill:#f1a79a"/><path d="M237.21,24.55a1.51,1.51,0,0,1,.47-1.15,1.86,1.86,0,0,1,2.4,0,1.61,1.61,0,0,1,0,2.28,1.73,1.73,0,0,1-1.21.44,1.69,1.69,0,0,1-1.2-.44A1.45,1.45,0,0,1,237.21,24.55Z" style="fill:#fff"/><path d="M14.27,60h-2V45.07h2Z" style="fill:#fff"/><path d="M17.71,49.28l-1.08-.74a4.91,4.91,0,0,0,1-2.81V44.25h1.88v1.34a4.8,4.8,0,0,1-.51,2A4.73,4.73,0,0,1,17.71,49.28Z" style="fill:#fff"/><path d="M23.35,48.91l0,1.23a4.09,4.09,0,0,1,3.29-1.44,3.18,3.18,0,0,1,3.17,1.79A4.07,4.07,0,0,1,31.3,49.2a4.24,4.24,0,0,1,2.1-.5q3.65,0,3.71,3.87V60h-1.9V52.68a2.58,2.58,0,0,0-.54-1.78,2.42,2.42,0,0,0-1.83-.59,2.46,2.46,0,0,0-2.56,2.33V60H28.37V52.73A2.12,2.12,0,0,0,26,50.31a2.54,2.54,0,0,0-2.55,1.59V60h-1.9V48.91Z" style="fill:#fff"/><path d="M52,60a4,4,0,0,1-.27-1.17,4.22,4.22,0,0,1-3.16,1.38,3.91,3.91,0,0,1-2.69-.93,3,3,0,0,1-1-2.35,3.11,3.11,0,0,1,1.32-2.69,6.17,6.17,0,0,1,3.7-1h1.85v-.87a2.12,2.12,0,0,0-.6-1.59,2.39,2.39,0,0,0-1.75-.59,2.77,2.77,0,0,0-1.7.51A1.53,1.53,0,0,0,47,52H45.07a2.64,2.64,0,0,1,.59-1.6,4.16,4.16,0,0,1,1.6-1.23,5.44,5.44,0,0,1,2.22-.45,4.4,4.4,0,0,1,3,1,3.49,3.49,0,0,1,1.13,2.64v5.11A6.23,6.23,0,0,0,54,59.84V60Zm-3.15-1.44a3.41,3.41,0,0,0,1.69-.46,2.84,2.84,0,0,0,1.16-1.2V54.62H50.23q-3.48,0-3.48,2a1.7,1.7,0,0,0,.59,1.39A2.28,2.28,0,0,0,48.87,58.56Z" style="fill:#fff"/><path d="M62.72,60V50.37H61V48.91h1.75V47.77a3.81,3.81,0,0,1,1-2.76,3.62,3.62,0,0,1,2.7-1,5.21,5.21,0,0,1,1.3.17l-.1,1.53a5.53,5.53,0,0,0-1-.09,1.86,1.86,0,0,0-1.43.54,2.2,2.2,0,0,0-.5,1.55v1.17H67v1.46H64.62V60Z" style="fill:#fff"/><path d="M75.93,58.91a4.05,4.05,0,0,1-3.25,1.3,3.46,3.46,0,0,1-2.7-1,4.44,4.44,0,0,1-.94-3V48.91h1.89v7.17c0,1.68.69,2.52,2.06,2.52A2.85,2.85,0,0,0,75.88,57V48.91h1.89V60H76Z" style="fill:#fff"/><path d="M82.72,60h-1.9V44.25h1.9Z" style="fill:#fff"/><path d="M87.81,60H85.92V44.25h1.89Z" style="fill:#fff"/><path d="M102.51,57.06a1.4,1.4,0,0,0-.58-1.19,5.56,5.56,0,0,0-2-.74,9.18,9.18,0,0,1-2.29-.74,3.18,3.18,0,0,1-1.25-1A2.47,2.47,0,0,1,96,52a2.87,2.87,0,0,1,1.16-2.3,4.5,4.5,0,0,1,2.95-.95,4.66,4.66,0,0,1,3.06,1,3.1,3.1,0,0,1,1.17,2.49h-1.91a1.7,1.7,0,0,0-.66-1.34,2.44,2.44,0,0,0-1.66-.57,2.6,2.6,0,0,0-1.62.45,1.43,1.43,0,0,0-.59,1.18,1.14,1.14,0,0,0,.55,1,6.65,6.65,0,0,0,2,.66,10.83,10.83,0,0,1,2.3.76A3.49,3.49,0,0,1,104,55.41a2.66,2.66,0,0,1,.42,1.52,2.82,2.82,0,0,1-1.19,2.38,5,5,0,0,1-3.08.9,5.65,5.65,0,0,1-2.36-.47,3.88,3.88,0,0,1-1.6-1.32,3.16,3.16,0,0,1-.59-1.83h1.9a2,2,0,0,0,.77,1.51,3,3,0,0,0,1.88.56,3.08,3.08,0,0,0,1.73-.44A1.33,1.33,0,0,0,102.51,57.06Z" style="fill:#fff"/><path d="M109.45,46.22v2.69h2.07v1.46h-2.07v6.89a1.49,1.49,0,0,0,.28,1,1.12,1.12,0,0,0,.94.34,4.64,4.64,0,0,0,.9-.12V60a5.35,5.35,0,0,1-1.45.21,2.37,2.37,0,0,1-1.92-.77,3.31,3.31,0,0,1-.65-2.19V50.37h-2V48.91h2V46.22Z" style="fill:#fff"/><path d="M120.58,60a4.09,4.09,0,0,1-.26-1.17,4.23,4.23,0,0,1-3.16,1.38,3.91,3.91,0,0,1-2.69-.93,3,3,0,0,1-1-2.35,3.13,3.13,0,0,1,1.31-2.69,6.23,6.23,0,0,1,3.71-1h1.85v-.87a2.12,2.12,0,0,0-.6-1.59,2.39,2.39,0,0,0-1.75-.59,2.75,2.75,0,0,0-1.7.51,1.53,1.53,0,0,0-.69,1.24h-1.91a2.64,2.64,0,0,1,.59-1.6,4.09,4.09,0,0,1,1.6-1.23,5.4,5.4,0,0,1,2.22-.45,4.4,4.4,0,0,1,3,1,3.45,3.45,0,0,1,1.12,2.64v5.11a6.23,6.23,0,0,0,.39,2.43V60Zm-3.14-1.44a3.44,3.44,0,0,0,1.69-.46,2.84,2.84,0,0,0,1.16-1.2V54.62H118.8c-2.32,0-3.49.68-3.49,2a1.71,1.71,0,0,0,.6,1.39A2.24,2.24,0,0,0,117.44,58.56Z" style="fill:#fff"/><path d="M129.61,58.66a2.68,2.68,0,0,0,1.77-.62,2.13,2.13,0,0,0,.84-1.53H134a3.51,3.51,0,0,1-.66,1.81,4.34,4.34,0,0,1-1.61,1.38,4.71,4.71,0,0,1-2.14.51A4.62,4.62,0,0,1,126,58.7a6,6,0,0,1-1.33-4.14v-.32a6.62,6.62,0,0,1,.59-2.88,4.61,4.61,0,0,1,1.71-2,4.89,4.89,0,0,1,2.63-.7,4.49,4.49,0,0,1,3.1,1.12,4,4,0,0,1,1.32,2.9h-1.8a2.6,2.6,0,0,0-.81-1.77,2.54,2.54,0,0,0-1.81-.69,2.66,2.66,0,0,0-2.24,1,4.9,4.9,0,0,0-.8,3v.36a4.82,4.82,0,0,0,.79,2.95A2.68,2.68,0,0,0,129.61,58.66Z" style="fill:#fff"/><path d="M139.25,54.87l-1.19,1.24V60h-1.9V44.25h1.9v9.53l1-1.22,3.46-3.65h2.3l-4.31,4.63L145.34,60h-2.23Z" style="fill:#fff"/><path d="M161.82,57.39,164,48.91h1.89L162.62,60h-1.54l-2.7-8.41L155.75,60h-1.53L151,48.91h1.88l2.19,8.3,2.58-8.3h1.53Z" style="fill:#fff"/><path d="M172.38,60.21a4.86,4.86,0,0,1-3.67-1.48,5.49,5.49,0,0,1-1.42-4v-.34a6.63,6.63,0,0,1,.63-3,4.92,4.92,0,0,1,1.76-2,4.46,4.46,0,0,1,2.46-.74,4.16,4.16,0,0,1,3.36,1.43,6.17,6.17,0,0,1,1.2,4.08V55h-7.51a3.87,3.87,0,0,0,1,2.65,3,3,0,0,0,2.33,1,3.32,3.32,0,0,0,1.7-.41,4.2,4.2,0,0,0,1.22-1.09l1.16.91A4.67,4.67,0,0,1,172.38,60.21Zm-.24-10a2.52,2.52,0,0,0-1.93.84,4,4,0,0,0-1,2.34h5.56V53.3a3.66,3.66,0,0,0-.78-2.24A2.4,2.4,0,0,0,172.14,50.26Z" style="fill:#fff"/><path d="M188.29,54.58a6.62,6.62,0,0,1-1.17,4.09A3.75,3.75,0,0,1,184,60.21a3.88,3.88,0,0,1-3.25-1.49L180.64,60H178.9V44.25h1.89v5.88A3.87,3.87,0,0,1,184,48.7a3.76,3.76,0,0,1,3.18,1.53,6.79,6.79,0,0,1,1.15,4.19Zm-1.9-.22a5.18,5.18,0,0,0-.74-3,2.5,2.5,0,0,0-2.16-1.06,2.79,2.79,0,0,0-2.7,1.75v4.8a2.88,2.88,0,0,0,2.72,1.74,2.44,2.44,0,0,0,2.12-1.06A5.4,5.4,0,0,0,186.39,54.36Z" style="fill:#fff"/><path d="M195.42,54.36a6.45,6.45,0,0,1,1.21-4.1,3.81,3.81,0,0,1,3.17-1.56A3.85,3.85,0,0,1,202.88,50V44.25h1.9V60H203l-.1-1.19a3.86,3.86,0,0,1-3.16,1.4,3.8,3.8,0,0,1-3.15-1.58,6.57,6.57,0,0,1-1.21-4.12Zm1.89.22a4.9,4.9,0,0,0,.78,3,2.53,2.53,0,0,0,2.16,1.07A2.76,2.76,0,0,0,202.88,57v-5.1a2.8,2.8,0,0,0-2.61-1.57,2.54,2.54,0,0,0-2.18,1.08A5.42,5.42,0,0,0,197.31,54.58Z" style="fill:#fff"/><path d="M212.33,60.21a4.86,4.86,0,0,1-3.67-1.48,5.49,5.49,0,0,1-1.42-4v-.34a6.63,6.63,0,0,1,.63-3,4.92,4.92,0,0,1,1.76-2,4.46,4.46,0,0,1,2.46-.74,4.16,4.16,0,0,1,3.36,1.43,6.17,6.17,0,0,1,1.2,4.08V55h-7.51a3.87,3.87,0,0,0,1,2.65,3,3,0,0,0,2.33,1,3.32,3.32,0,0,0,1.7-.41,4.34,4.34,0,0,0,1.22-1.09l1.16.91A4.68,4.68,0,0,1,212.33,60.21Zm-.24-10a2.52,2.52,0,0,0-1.93.84,4,4,0,0,0-1,2.34h5.56V53.3a3.66,3.66,0,0,0-.78-2.24A2.4,2.4,0,0,0,212.09,50.26Z" style="fill:#fff"/><path d="M222.37,57.43l2.75-8.52h1.94l-4,11.09h-1.44l-4-11.09h1.93Z" style="fill:#fff"/><path d="M233.36,60.21a4.86,4.86,0,0,1-3.67-1.48,5.49,5.49,0,0,1-1.42-4v-.34a6.63,6.63,0,0,1,.63-3,4.87,4.87,0,0,1,1.77-2,4.4,4.4,0,0,1,2.45-.74,4.16,4.16,0,0,1,3.36,1.43,6.17,6.17,0,0,1,1.2,4.08V55h-7.51a3.92,3.92,0,0,0,1,2.65,3,3,0,0,0,2.33,1,3.32,3.32,0,0,0,1.7-.41,4.2,4.2,0,0,0,1.22-1.09l1.16.91A4.67,4.67,0,0,1,233.36,60.21Zm-.24-10a2.54,2.54,0,0,0-1.93.84,4,4,0,0,0-1,2.34h5.56V53.3a3.66,3.66,0,0,0-.78-2.24A2.4,2.4,0,0,0,233.12,50.26Z" style="fill:#fff"/><path d="M241.94,60H240V44.25h1.9Z" style="fill:#fff"/><path d="M244.47,54.35a6.53,6.53,0,0,1,.64-2.93,4.74,4.74,0,0,1,1.79-2,4.86,4.86,0,0,1,2.61-.71,4.68,4.68,0,0,1,3.66,1.57,6.07,6.07,0,0,1,1.4,4.18v.13a6.68,6.68,0,0,1-.62,2.91,4.71,4.71,0,0,1-1.77,2,4.92,4.92,0,0,1-2.65.72,4.65,4.65,0,0,1-3.66-1.57,6,6,0,0,1-1.4-4.15Zm1.91.23a4.73,4.73,0,0,0,.85,3,2.75,2.75,0,0,0,2.3,1.12,2.72,2.72,0,0,0,2.29-1.13,5.2,5.2,0,0,0,.85-3.18,4.75,4.75,0,0,0-.86-3,2.77,2.77,0,0,0-2.3-1.13,2.71,2.71,0,0,0-2.27,1.12A5.17,5.17,0,0,0,246.38,54.58Z" style="fill:#fff"/><path d="M266.32,54.58a6.58,6.58,0,0,1-1.16,4.08A3.72,3.72,0,0,1,262,60.21a4.08,4.08,0,0,1-3.18-1.28v5.34H257V48.91h1.73l.1,1.23A3.89,3.89,0,0,1,262,48.7a3.8,3.8,0,0,1,3.16,1.51,6.75,6.75,0,0,1,1.16,4.19Zm-1.9-.22a4.91,4.91,0,0,0-.79-3,2.61,2.61,0,0,0-2.2-1.09,2.78,2.78,0,0,0-2.58,1.53v5.3a2.78,2.78,0,0,0,2.6,1.52,2.57,2.57,0,0,0,2.17-1.08A5.33,5.33,0,0,0,264.42,54.36Z" style="fill:#fff"/><path d="M273.34,60.21a4.86,4.86,0,0,1-3.67-1.48,5.49,5.49,0,0,1-1.42-4v-.34a6.63,6.63,0,0,1,.63-3,4.92,4.92,0,0,1,1.76-2,4.46,4.46,0,0,1,2.46-.74,4.16,4.16,0,0,1,3.36,1.43,6.17,6.17,0,0,1,1.2,4.08V55h-7.51a3.87,3.87,0,0,0,1,2.65,3,3,0,0,0,2.33,1,3.32,3.32,0,0,0,1.7-.41,4.2,4.2,0,0,0,1.22-1.09l1.16.91A4.67,4.67,0,0,1,273.34,60.21Zm-.24-10a2.52,2.52,0,0,0-1.93.84,4,4,0,0,0-1,2.34h5.56V53.3a3.66,3.66,0,0,0-.78-2.24A2.4,2.4,0,0,0,273.1,50.26Z" style="fill:#fff"/><path d="M285.22,50.61a5.49,5.49,0,0,0-.93-.07,2.51,2.51,0,0,0-2.54,1.59V60h-1.89V48.91h1.84l0,1.28a3,3,0,0,1,2.64-1.49,1.85,1.85,0,0,1,.84.15Z" style="fill:#fff"/><path d="M285.74,59a1.17,1.17,0,0,1,.3-.82,1.09,1.09,0,0,1,.87-.33,1.15,1.15,0,0,1,.89.33,1.17,1.17,0,0,1,.3.82,1.11,1.11,0,0,1-.3.79,1.18,1.18,0,0,1-.89.32A1.07,1.07,0,0,1,285.74,59Z" style="fill:#fff"/></svg>